<?xml version="1.0" encoding="UTF-8"?><svg id="Layer_1" xmlns="http://www.w3.org/2000/svg" viewBox="0 0 330 40"><defs><style>.cls-1{fill:#ef4a24;}.cls-2{fill:#53575b;}.cls-3{fill:#575a5b;}</style></defs><g><g id="icon"><path class="cls-1" d="m39.2,23.02h-12.95c-2.01,0-3.63,1.63-3.63,3.63v12.95c8.74-.68,15.78-7.72,16.58-16.58Z"/><path class="cls-1" d="m2.63,23.02h12.95c2.01,0,3.63,1.63,3.63,3.63v12.95c-8.86-.68-15.78-7.72-16.58-16.58Z"/><path class="cls-1" d="m39.2,19.61h-12.95c-2.01,0-3.63-1.63-3.63-3.63V3.03c8.74.68,15.78,7.72,16.58,16.58Z"/><path class="cls-1" d="m19.21,16.09V3.03c0-3.41-3.63-2.73-5.45-2.16C7.74,3.03,2.97,7.69.7,13.6c-.34,1.02-1.93,5.68,1.36,6.02h13.51c2.04.11,3.63-1.59,3.63-3.52Z"/></g><path class="cls-2" d="m76.9,39.6h-11.56l-8.81-14.24v14.24h-9.25V2.62h14.31c1.98,0,3.74.34,5.17.92s2.64,1.38,3.63,2.53c.99,1.03,1.65,2.3,2.2,3.68.44,1.38.77,2.87.77,4.36,0,2.76-.66,5.05-1.98,6.89-1.32,1.72-3.19,2.99-5.72,3.56l11.23,15.05Zm-20.36-19.65h1.9c1.9,0,3.44-.36,4.5-1.19s1.54-2.02,1.54-3.44-.47-2.73-1.54-3.44c-1.07-.83-2.49-1.19-4.5-1.19h-1.9v9.25Z"/><path class="cls-2" d="m102.76,10.71h-11.56v5.78h10.4v8.09h-10.4v6.93h11.56v8.09h-20.8V2.62h20.8v8.09Z"/><path class="cls-2" d="m116.45,2.62l8.96,22.51,8.96-22.51h10.45l-15.62,36.98h-7.7L106,2.62h10.45Z"/><path class="cls-2" d="m175.34,8.74l-4.39,2.54c-.81-1.39-1.62-2.31-2.31-2.77-.81-.46-1.73-.69-3-.69-1.5,0-2.77.46-3.7,1.27-1.04.81-1.5,1.85-1.5,3.12,0,1.73,1.27,3.12,3.93,4.16l3.58,1.5c2.89,1.16,4.97,2.66,6.36,4.28,1.39,1.73,1.96,3.7,1.96,6.24,0,3.24-1.04,6.01-3.24,8.09-2.2,2.2-4.97,3.24-8.21,3.24s-5.66-.92-7.63-2.77-3.24-4.39-3.7-7.74l5.43-1.16c.23,2.08.69,3.58,1.27,4.39,1.16,1.5,2.77,2.31,4.85,2.31,1.73,0,3.12-.58,4.16-1.73,1.16-1.16,1.62-2.54,1.62-4.28,0-.69-.12-1.27-.23-1.85s-.46-1.16-.92-1.62-.92-.92-1.62-1.39-1.39-.81-2.31-1.27l-3.47-1.39c-4.85-2.08-7.28-5.09-7.28-9.01,0-2.66,1.04-4.97,3.12-6.7,2.08-1.85,4.62-2.77,7.63-2.77,4.04,0,7.28,1.96,9.59,6.01h0Z"/><path class="cls-2" d="m192.9,7.24v32.36h-5.78V7.24h-8.09V2.62h21.96v4.62h-8.09Z"/><path class="cls-2" d="m210.24,2.62v22.19c0,3,.45,5.2,1.46,6.7,1.46,2.08,3.48,3,6.05,3s4.6-1.04,6.05-3c1.01-1.39,1.46-3.58,1.46-6.7V2.62h5.78v23.69c0,3.7-1.18,6.82-3.53,9.25-2.71,2.66-5.88,4.04-9.76,4.04s-7.17-1.39-9.76-4.04c-2.35-2.43-3.53-5.43-3.53-9.25V2.62h5.78Z"/><path class="cls-2" d="m237.98,39.6V2.62h7.7c3.68,0,6.66.34,8.84,1.15,2.3.69,4.36,1.95,6.32,3.68,3.79,3.45,5.74,8.04,5.74,13.67s-1.95,10.22-5.97,13.78c-1.95,1.72-4.13,2.99-6.32,3.68-2.07.69-4.94,1.03-8.73,1.03h-7.58Zm5.78-4.62h2.54c2.54,0,4.62-.23,6.24-.81s3.12-1.5,4.51-2.66c2.77-2.54,4.16-5.78,4.16-9.82s-1.39-7.4-4.04-9.94c-2.43-2.31-6.13-3.35-10.86-3.35h-2.54v26.58Z"/><path class="cls-2" d="m278.43,2.62v36.98h-5.78V2.62h5.78Z"/><path class="cls-2" d="m284.44,21.23c0-4.97,1.85-9.25,5.43-12.83,3.58-3.58,7.97-5.32,13.06-5.32s9.36,1.85,12.94,5.43c3.58,3.58,5.43,7.97,5.43,12.94s-1.85,9.36-5.43,12.94c-3.7,3.58-8.09,5.32-13.17,5.32-4.51,0-8.67-1.62-12.25-4.74-4.04-3.47-6.01-8.09-6.01-13.75Zm5.43.12c0,3.93,1.27,7.17,3.93,9.59,2.66,2.54,5.66,3.81,9.01,3.81,3.7,0,6.82-1.27,9.36-3.81s3.81-5.78,3.81-9.48-1.27-6.93-3.81-9.48-5.55-3.81-9.25-3.81-6.82,1.27-9.36,3.81c-2.43,2.54-3.7,5.66-3.7,9.36h0Z"/></g><path class="cls-3" d="m322.01,4.19v3.7h-.81v-3.7h-.99v-.77h2.78v.77h-.99Zm1.26,3.7l.96-4.88,1.49,3.3,1.49-3.3.96,4.88h-.83l-.42-2.43-1.2,2.51-1.2-2.51-.42,2.43h-.83Z"/></svg>