<?xml version="1.0" encoding="UTF-8"?><svg id="Layer_1" xmlns="http://www.w3.org/2000/svg" viewBox="0 0 300 140"><defs><style>.cls-1{fill:#ef4a24;}.cls-2{fill:#53575b;}</style></defs><g id="icon"><path class="cls-1" d="m129.03,78.57c0-.05-.04-.05-.13,0l-38.9.15c-5.99,0-10.85,4.86-10.85,10.85l-.11,38.89c-.05.09-.05.14,0,.13,26.53-2.35,47.66-23.49,49.99-50.02Z"/><path class="cls-1" d="m19.25,78.57c0-.05.04-.05.13,0l38.9.15c5.99,0,10.85,4.86,10.85,10.85l.11,38.89c.05.09.05.14,0,.13-26.53-2.35-47.66-23.49-49.99-50.02Z"/><path class="cls-1" d="m129.03,68.79c0,.05-.04.05-.13,0l-38.9-.15c-5.99,0-10.85-4.86-10.85-10.85l-.11-38.89c-.05-.09-.05-.14,0-.13,26.53,2.34,47.66,23.48,49.99,50.02Z"/><path class="cls-1" d="m69.23,57.78c0-1.97-.01-29.28,0-39.05.01-10.32-11.06-8.04-16.24-6.42-.9.28-1.63.54-2.08.72-.8.3-1.58.66-2.35,1.05-16.04,6.98-28.81,20.05-35,36.42-1.11,2.94-5.93,16.96,4.17,18.22.48.06.99.1,1.54.1,10.13-.01,39.17,0,39.17,0,5.99,0,10.85-4.86,10.85-10.86-.02,0-.03-.06-.06-.18Z"/></g><g><path class="cls-2" d="m191.92,68.79h-16.4l-12.56-19.49v19.49h-13.17V18.11h20.5c2.82,0,5.29.42,7.39,1.24,2.11.83,3.84,1.96,5.21,3.39,1.37,1.44,2.4,3.09,3.09,4.97s1.04,3.9,1.04,6.05c0,3.85-.93,6.98-2.79,9.38s-4.6,4.02-8.23,4.87l15.92,20.78Zm-28.96-28.03h2.49c2.6,0,4.59-.54,5.98-1.61,1.39-1.08,2.08-2.62,2.08-4.64s-.69-3.56-2.08-4.64-3.38-1.61-5.98-1.61h-2.49v12.5Z"/><path class="cls-2" d="m226.27,29.27h-15.66v8.47h14.79v11.16h-14.79v8.74h15.66v11.16h-28.83V18.11h28.83v11.16Z"/><path class="cls-2" d="m244.75,18.11l12.23,30.85,12.3-30.85h14.32l-21.37,50.68h-10.48l-21.3-50.68h14.3Z"/><path class="cls-2" d="m154.64,126.92h-2.94l-.76,1.67h-1.12l3.4-7.3,3.28,7.3h-1.13l-.73-1.67Zm-.42-.97l-1.02-2.33-1.07,2.33h2.09Z"/><path class="cls-2" d="m160,128.59v-6.87h1.44c.69,0,1.24.07,1.64.2.43.13.82.36,1.17.68.71.65,1.06,1.5,1.06,2.55s-.37,1.91-1.11,2.56c-.37.33-.76.55-1.17.68-.38.13-.92.19-1.61.19h-1.42Zm1.04-.97h.47c.47,0,.85-.05,1.16-.15s.59-.27.84-.49c.51-.47.76-1.07.76-1.82s-.25-1.36-.76-1.83c-.45-.42-1.12-.63-2.01-.63h-.47v4.92h0Z"/><path class="cls-2" d="m167.57,121.72v6.87h-1.04v-6.87h1.04Z"/><path class="cls-2" d="m169.48,121.72l1.9,4.76,1.93-4.76h1.13l-3.08,7.38-3.01-7.38h1.13Z"/><path class="cls-2" d="m176.25,121.72v6.87h-1.04v-6.87h1.04Z"/><path class="cls-2" d="m181.7,122.74l-.84.5c-.16-.27-.31-.45-.45-.53-.15-.1-.34-.14-.57-.14-.29,0-.53.08-.72.24s-.28.36-.28.6c0,.34.25.6.75.81l.68.28c.56.23.97.5,1.22.82.26.33.39.72.39,1.19,0,.63-.21,1.15-.63,1.57-.42.42-.95.62-1.58.62s-1.09-.18-1.48-.53c-.38-.35-.62-.85-.72-1.49l1.05-.23c.05.4.13.68.25.84.21.3.52.44.93.44.32,0,.59-.11.8-.32.21-.22.32-.49.32-.82,0-.13-.02-.26-.05-.37-.04-.11-.1-.21-.17-.31-.08-.09-.18-.18-.3-.26s-.27-.16-.44-.23l-.66-.28c-.94-.4-1.41-.98-1.41-1.74,0-.52.2-.95.59-1.29.39-.35.89-.52,1.47-.52.79,0,1.41.38,1.85,1.15h0Z"/><path class="cls-2" d="m184.08,121.72v6.87h-1.04v-6.87h1.04Z"/><path class="cls-2" d="m185.31,125.12c0-.97.35-1.8,1.06-2.49s1.55-1.04,2.54-1.04,1.82.35,2.52,1.05,1.05,1.54,1.05,2.52-.35,1.82-1.06,2.51c-.71.69-1.56,1.04-2.57,1.04-.89,0-1.68-.31-2.39-.92-.76-.68-1.15-1.57-1.15-2.67Zm1.04.02c0,.76.26,1.38.76,1.87.51.49,1.09.73,1.76.73.72,0,1.33-.25,1.82-.75s.74-1.12.74-1.84-.24-1.35-.73-1.84c-.49-.5-1.09-.75-1.81-.75s-1.32.25-1.81.75c-.48.5-.73,1.1-.73,1.83h0Z"/><path class="cls-2" d="m193.71,128.59v-7.33l5.01,5.24v-4.77h1.04v7.28l-5.01-5.23v4.81h-1.04Z"/><path class="cls-2" d="m203.7,125.12c0-.97.35-1.8,1.06-2.49s1.55-1.04,2.54-1.04,1.82.35,2.52,1.05,1.05,1.54,1.05,2.52-.35,1.82-1.06,2.51c-.71.69-1.56,1.04-2.57,1.04-.89,0-1.68-.31-2.39-.92-.76-.68-1.15-1.57-1.15-2.67Zm1.05.02c0,.76.26,1.38.76,1.87.51.49,1.09.73,1.76.73.72,0,1.33-.25,1.82-.75s.74-1.12.74-1.84-.24-1.35-.73-1.84c-.49-.5-1.09-.75-1.81-.75s-1.32.25-1.81.75-.73,1.1-.73,1.83h0Z"/><path class="cls-2" d="m215.53,122.69h-2.39v1.65h2.31v.97h-2.31v3.27h-1.04v-6.87h3.43v.98Z"/><path class="cls-2" d="m220.41,125.8v2.79h-1.04v-6.87h1.17c.57,0,1.01.04,1.3.12.3.08.56.23.78.45.39.39.59.87.59,1.46,0,.63-.21,1.13-.63,1.49-.42.37-.99.55-1.7.55h-.47Zm0-.95h.39c.95,0,1.43-.37,1.43-1.1s-.49-1.06-1.47-1.06h-.34v2.16h0Z"/><path class="cls-2" d="m223.87,125.12c0-.97.35-1.8,1.06-2.49s1.55-1.04,2.54-1.04,1.82.35,2.52,1.05,1.05,1.54,1.05,2.52-.35,1.82-1.06,2.51c-.71.69-1.56,1.04-2.57,1.04-.89,0-1.68-.31-2.39-.92-.76-.68-1.15-1.57-1.15-2.67Zm1.05.02c0,.76.26,1.38.76,1.87.51.49,1.09.73,1.76.73.72,0,1.33-.25,1.82-.75s.74-1.12.74-1.84-.24-1.35-.73-1.84c-.49-.5-1.09-.75-1.81-.75s-1.32.25-1.81.75-.73,1.1-.73,1.83h0Z"/><path class="cls-2" d="m236.15,122.74l-.84.5c-.16-.27-.31-.45-.45-.53-.15-.1-.34-.14-.57-.14-.29,0-.53.08-.72.24s-.28.36-.28.6c0,.34.25.6.75.81l.68.28c.56.23.97.5,1.22.82.26.33.39.72.39,1.19,0,.63-.21,1.15-.63,1.57-.42.42-.95.62-1.58.62s-1.09-.18-1.48-.53c-.38-.35-.62-.85-.72-1.49l1.05-.23c.05.4.13.68.25.84.21.3.52.44.93.44.32,0,.59-.11.8-.32.21-.22.32-.49.32-.82,0-.13-.02-.26-.05-.37-.04-.11-.1-.21-.17-.31-.08-.09-.18-.18-.3-.26s-.27-.16-.44-.23l-.66-.28c-.94-.4-1.41-.98-1.41-1.74,0-.52.2-.95.59-1.29.39-.35.89-.52,1.47-.52.79,0,1.41.38,1.85,1.15h0Z"/><path class="cls-2" d="m238.53,121.72v6.87h-1.04v-6.87h1.04Z"/><path class="cls-2" d="m242,122.69v5.89h-1.04v-5.89h-1.58v-.97h4.19v.97h-1.57Z"/><path class="cls-2" d="m246.74,125.66l2.13,2.93h-1.27l-1.96-2.81h-.19v2.81h-1.04v-6.87h1.21c.91,0,1.56.17,1.97.51.44.38.67.88.67,1.5,0,.49-.14.9-.42,1.25s-.64.58-1.1.68Zm-1.29-.79h.33c.98,0,1.47-.38,1.47-1.13,0-.7-.48-1.05-1.43-1.05h-.37v2.18Z"/><path class="cls-2" d="m253.85,126.92h-2.94l-.76,1.67h-1.12l3.4-7.3,3.28,7.3h-1.13l-.73-1.67Zm-.42-.97l-1.02-2.33-1.07,2.33h2.09Z"/><path class="cls-2" d="m261.23,122.09v1.23c-.6-.5-1.22-.75-1.86-.75-.71,0-1.3.25-1.78.76-.49.5-.73,1.12-.73,1.85s.24,1.33.73,1.82c.49.5,1.08.74,1.79.74.36,0,.67-.06.93-.18.14-.06.29-.14.44-.24s.31-.22.48-.36v1.25c-.59.34-1.22.5-1.87.5-.98,0-1.82-.34-2.51-1.03s-1.04-1.52-1.04-2.5c0-.87.29-1.65.87-2.34.71-.84,1.63-1.26,2.76-1.26.62.01,1.22.17,1.79.51h0Z"/><path class="cls-2" d="m264.35,122.69v5.89h-1.04v-5.89h-1.58v-.97h4.19v.97h-1.57Z"/><path class="cls-2" d="m267.81,121.72v6.87h-1.04v-6.87h1.04Z"/><path class="cls-2" d="m269.03,125.12c0-.97.35-1.8,1.06-2.49s1.55-1.04,2.54-1.04,1.82.35,2.52,1.05,1.05,1.54,1.05,2.52-.35,1.82-1.06,2.51c-.71.69-1.56,1.04-2.57,1.04-.89,0-1.68-.31-2.39-.92-.76-.68-1.15-1.57-1.15-2.67h0Zm1.05.02c0,.76.26,1.38.76,1.87.51.49,1.09.73,1.76.73.72,0,1.33-.25,1.82-.75s.74-1.12.74-1.84-.24-1.35-.73-1.84c-.49-.5-1.09-.75-1.81-.75s-1.32.25-1.81.75-.73,1.1-.73,1.83h0Z"/><path class="cls-2" d="m277.43,128.59v-7.33l5.01,5.24v-4.77h1.04v7.28l-5.01-5.23v4.81h-1.04Z"/><path class="cls-2" d="m288.57,123.55c0,.58-.2,1.07-.61,1.48-.4.41-.89.61-1.47.61s-1.06-.2-1.47-.61c-.4-.41-.61-.9-.61-1.48,0-.32.07-.61.2-.88.13-.28.32-.52.55-.72.39-.32.82-.48,1.3-.48.32,0,.61.06.87.18.37.16.66.42.89.76.24.36.35.73.35,1.14h0Zm-2.09-1.78c-.47,0-.88.17-1.22.52s-.51.77-.51,1.25.17.91.51,1.27c.34.35.75.52,1.23.52s.89-.17,1.23-.52.51-.77.51-1.27c0-.26-.07-.54-.2-.82-.13-.26-.31-.47-.52-.63-.31-.21-.65-.32-1.03-.32h0Zm.22,1.98l.78,1h-.56l-.71-.95v.95h-.46v-2.4h.48c.34,0,.58.06.73.18.17.14.26.32.26.54,0,.15-.05.29-.14.42-.09.12-.21.21-.35.25h-.03Zm-.5-.32h.08c.33,0,.49-.11.49-.34,0-.21-.16-.32-.48-.32h-.09v.66Z"/></g><rect class="cls-1" x="149.79" y="115.1" width="134.2" height="1.61"/><path class="cls-2" d="m167.1,83.51l-3.43,2.03c-.64-1.11-1.25-1.84-1.83-2.18-.6-.39-1.39-.58-2.34-.58-1.17,0-2.15.33-2.92,1-.77.65-1.16,1.48-1.16,2.47,0,1.37,1.02,2.47,3.05,3.3l2.8,1.14c2.27.92,3.94,2.04,4.99,3.37,1.05,1.32,1.58,2.95,1.58,4.87,0,2.58-.86,4.71-2.58,6.39-1.73,1.69-3.88,2.54-6.44,2.54s-4.44-.72-6.03-2.16c-1.56-1.44-2.53-3.47-2.92-6.08l4.28-.94c.19,1.65.53,2.78,1.02,3.41.87,1.21,2.14,1.81,3.81,1.81,1.32,0,2.41-.44,3.28-1.32s1.31-2,1.31-3.36c0-.54-.08-1.04-.23-1.5-.15-.45-.39-.87-.71-1.25s-.74-.74-1.24-1.07c-.51-.33-1.11-.65-1.82-.95l-2.7-1.12c-3.84-1.62-5.75-3.99-5.75-7.11,0-2.11.8-3.87,2.41-5.28,1.61-1.43,3.61-2.14,6.01-2.14,3.23-.01,5.75,1.56,7.56,4.71Z"/><path class="cls-2" d="m180.85,83.31v24.05h-4.23v-24.05h-6.44v-3.98h17.1v3.98h-6.43Z"/><path class="cls-2" d="m194.95,79.33v16.88c0,2.41.39,4.17,1.18,5.28,1.17,1.61,2.83,2.41,4.96,2.41s3.8-.8,4.97-2.41c.79-1.08,1.18-2.84,1.18-5.28v-16.88h4.23v18.04c0,2.95-.92,5.38-2.76,7.3-2.07,2.13-4.61,3.19-7.62,3.19s-5.55-1.06-7.6-3.19c-1.84-1.91-2.76-4.34-2.76-7.3v-18.04h4.22Z"/><path class="cls-2" d="m217.84,107.36v-28.03h5.88c2.82,0,5.05.28,6.68.84,1.75.54,3.35,1.47,4.77,2.78,2.89,2.64,4.34,6.1,4.34,10.4s-1.51,7.79-4.52,10.45c-1.51,1.33-3.1,2.26-4.75,2.78-1.55.52-3.75.78-6.59.78h-5.81Zm4.23-3.98h1.91c1.9,0,3.48-.2,4.74-.6,1.26-.42,2.4-1.09,3.41-2.02,2.08-1.9,3.12-4.37,3.12-7.42s-1.03-5.57-3.09-7.48c-1.85-1.71-4.58-2.56-8.19-2.56h-1.91v20.08h0Z"/><path class="cls-2" d="m248.73,79.33v28.02h-4.23v-28.02h4.23Z"/><path class="cls-2" d="m253.73,93.22c0-3.94,1.45-7.33,4.34-10.16,2.88-2.83,6.34-4.25,10.38-4.25s7.42,1.43,10.27,4.28c2.87,2.86,4.3,6.29,4.3,10.29s-1.44,7.45-4.32,10.25c-2.89,2.82-6.38,4.23-10.47,4.23-3.62,0-6.87-1.25-9.75-3.76-3.17-2.76-4.75-6.39-4.75-10.88h0Zm4.26.05c0,3.1,1.04,5.64,3.12,7.64,2.07,2,4.46,2.99,7.17,2.99,2.94,0,5.42-1.02,7.44-3.05,2.02-2.06,3.03-4.56,3.03-7.51s-1-5.49-2.99-7.51c-1.98-2.03-4.44-3.05-7.37-3.05s-5.38,1.02-7.39,3.05c-2,2.01-3.01,4.49-3.01,7.44Z"/></svg>